<svg version="1.0" xmlns="http://www.w3.org/2000/svg"
 width="300.000000pt" height="77.000000pt" viewBox="0 0 300.000000 77.000000"
 preserveAspectRatio="xMidYMid meet">

<g transform="translate(0.000000,77.000000) scale(0.100000,-0.100000)"
fill="#FFFFFF" stroke="none">
<path d="M147 733 c-17 -3 -32 -14 -41 -32 -8 -15 -22 -33 -30 -40 -9 -8 -16
-18 -16 -24 0 -6 15 4 33 22 19 17 61 43 93 56 55 23 57 24 24 23 -19 0 -47
-3 -63 -5z"/>
<path d="M175 701 c-46 -21 -89 -64 -104 -104 -9 -22 -7 -33 5 -52 19 -30 30
-33 81 -28 48 5 85 -10 77 -31 -3 -8 2 -25 11 -39 11 -17 14 -36 9 -64 -4 -26
-2 -43 5 -47 6 -4 11 -15 11 -25 0 -32 31 -83 47 -77 8 3 21 6 29 6 16 0 67
77 59 90 -3 5 4 15 16 24 18 12 21 21 16 52 -6 34 -2 42 33 81 44 47 52 74 20
66 -13 -4 -26 1 -36 13 -25 32 -61 108 -57 120 5 14 -76 25 -92 13 -6 -4 -21
-1 -35 6 -33 19 -47 18 -95 -4z"/>
<path d="M868 586 c-65 -18 -111 -56 -142 -118 -99 -199 99 -408 299 -314 78
36 83 47 43 95 -35 43 -47 48 -65 30 -7 -7 -33 -18 -60 -25 -40 -11 -43 -13
-18 -13 17 -1 48 8 68 18 l37 19 26 -34 c31 -40 24 -56 -41 -85 -105 -48 -232
0 -281 106 -42 89 -28 180 39 249 77 81 185 93 279 31 l40 -27 -28 -31 c-16
-18 -30 -34 -32 -36 -1 -3 -18 3 -37 12 -70 33 -140 15 -171 -44 -27 -54 -13
-118 36 -156 28 -22 36 -13 8 10 -59 50 -65 112 -14 163 40 40 77 44 135 14
l39 -19 37 40 c42 46 39 54 -29 94 -53 30 -109 37 -168 21z"/>
<path d="M1130 365 l0 -235 60 0 60 0 0 55 c0 54 1 55 28 55 24 0 32 -8 55
-55 l27 -55 70 0 c38 0 70 2 70 5 0 2 -19 35 -41 72 -33 53 -39 70 -30 83 43
59 51 78 51 128 0 60 -15 94 -57 135 -40 37 -80 47 -195 47 l-98 0 0 -235z
m257 202 c88 -47 112 -186 43 -255 l-29 -29 40 -68 c21 -37 39 -69 39 -71 0
-2 -24 -4 -54 -4 l-55 0 -28 53 c-25 47 -32 52 -65 55 l-38 3 0 -55 0 -56 -50
0 -50 0 0 226 0 226 108 -4 c75 -3 117 -9 139 -21z"/>
<path d="M1160 366 l0 -206 30 0 c30 0 30 1 30 55 l0 55 40 0 c45 0 46 0 25
40 -11 21 -23 30 -40 30 -25 0 -25 2 -25 80 l0 80 63 0 c53 0 67 -4 85 -23 26
-28 29 -83 5 -109 -13 -15 -14 -23 -5 -43 15 -32 25 -31 55 4 52 62 41 151
-26 205 -36 28 -44 31 -138 34 l-99 4 0 -206z"/>
<path d="M1240 420 l0 -60 55 0 c51 0 56 2 70 30 13 26 14 35 3 58 -12 24 -19
27 -71 30 l-57 3 0 -61z m108 38 c7 -7 12 -24 12 -38 0 -37 -18 -50 -67 -50
l-43 0 0 50 0 50 43 0 c24 0 48 -5 55 -12z"/>
<path d="M1290 334 c0 -3 21 -44 46 -90 44 -81 47 -84 81 -84 l35 0 -22 38
c-12 20 -36 61 -52 90 -25 44 -34 52 -59 52 -16 0 -29 -3 -29 -6z"/>
<path d="M1540 365 l0 -235 165 0 165 0 0 60 0 60 -111 0 c-109 0 -110 0 -107
23 3 21 8 22 111 25 l107 3 0 59 0 59 -107 3 c-103 3 -108 4 -111 26 -3 22 -2
22 107 22 l111 0 0 65 0 65 -165 0 -165 0 0 -235z m320 170 l0 -55 -110 0
-110 0 0 -35 0 -35 110 0 110 0 0 -50 0 -49 -107 -3 -108 -3 -3 -32 -3 -33
110 0 111 0 0 -50 0 -50 -155 0 -155 0 0 225 0 225 155 0 155 0 0 -55z"/>
<path d="M1567 563 c-4 -3 -7 -96 -7 -205 l0 -198 140 0 140 0 0 30 0 30 -105
0 -105 0 0 55 0 55 105 0 105 0 0 30 0 30 -105 0 -105 0 0 55 0 55 105 0 105
0 0 35 0 35 -133 0 c-74 0 -137 -3 -140 -7z"/>
<path d="M2011 590 c-18 -4 -47 -22 -64 -38 -54 -55 -46 -172 15 -212 13 -8
50 -23 83 -35 68 -24 80 -48 27 -53 -19 -2 -54 7 -88 22 -50 23 -55 24 -61 8
-3 -9 -12 -32 -20 -51 -12 -30 -11 -35 4 -48 69 -55 187 -70 250 -32 51 32 70
79 65 161 -3 40 -51 82 -122 103 -57 17 -82 37 -66 52 12 13 77 3 116 -17 30
-16 41 -17 44 -8 2 7 9 28 15 47 17 52 14 57 -32 79 -52 24 -120 34 -166 22z
m157 -32 c30 -14 41 -25 38 -37 -3 -9 -8 -28 -12 -43 -6 -27 -27 -37 -38 -19
-9 13 -89 31 -113 25 -28 -8 -36 -30 -18 -48 8 -8 40 -22 71 -31 33 -9 69 -29
85 -45 25 -24 29 -36 29 -83 0 -87 -53 -137 -148 -137 -52 0 -152 42 -152 64
0 14 20 76 25 76 1 0 22 -9 46 -20 70 -31 139 -23 139 16 0 7 -26 22 -57 34
-86 31 -104 42 -125 75 -34 56 -16 149 35 176 58 32 122 31 195 -3z"/>
<path d="M2020 560 c-50 -12 -80 -51 -80 -105 0 -60 34 -99 104 -119 30 -9 64
-25 77 -35 23 -19 23 -21 9 -48 -20 -37 -80 -43 -144 -15 l-44 20 -7 -25 c-8
-32 8 -50 54 -63 94 -26 172 -3 198 57 31 75 -2 129 -101 163 -33 11 -65 25
-72 31 -19 16 -18 54 2 70 19 16 86 15 126 -2 32 -13 33 -13 42 19 6 19 2 25
-26 36 -47 20 -98 26 -138 16z"/>
<path d="M2387 593 c-4 -7 -94 -229 -168 -415 l-19 -48 69 0 c60 0 71 3 76 19
4 15 22 22 73 30 37 7 75 14 85 17 13 4 21 -4 32 -30 l15 -36 125 0 124 0 3
83 3 82 98 3 97 3 0 59 0 60 -100 0 -100 0 0 25 0 25 100 0 100 0 0 65 0 65
-155 0 -155 0 -2 -232 -3 -233 -92 230 -92 230 -55 3 c-30 2 -56 -1 -59 -5z
m135 -83 c17 -41 56 -141 88 -223 l58 -147 -54 0 c-52 0 -54 1 -68 35 -8 19
-19 35 -23 35 -4 0 -47 -7 -95 -16 -69 -13 -89 -20 -93 -35 -5 -16 -16 -19
-61 -19 -30 0 -54 1 -54 3 0 7 160 409 171 428 8 16 19 19 56 17 l45 -3 30
-75z m463 25 l0 -50 -97 -3 -98 -3 0 -34 0 -35 100 0 100 0 0 -50 0 -49 -97
-3 -98 -3 -3 -82 -3 -83 -44 0 -45 0 0 225 0 226 143 -3 142 -3 0 -50z"/>
<path d="M2402 553 c-14 -26 -152 -378 -152 -386 0 -4 15 -7 34 -7 24 0 35 5
39 19 3 13 18 20 53 25 141 21 159 31 131 70 -12 16 -19 16 -76 6 -35 -6 -65
-9 -67 -7 -3 3 9 40 27 83 17 44 36 90 41 104 9 22 17 8 75 -137 l65 -163 34
0 c19 0 34 1 34 3 0 1 -36 92 -79 202 l-79 200 -36 3 c-25 2 -37 -2 -44 -15z"/>
<path d="M2432 410 c-5 -14 -18 -44 -27 -68 -10 -24 -16 -45 -14 -47 5 -4 88
11 94 17 3 3 -6 31 -19 64 -23 56 -25 58 -34 34z m38 -86 c0 -9 -11 -14 -30
-14 -35 0 -36 4 -14 56 l16 38 14 -33 c8 -18 14 -40 14 -47z"/>
<path d="M2717 563 c-4 -3 -7 -96 -7 -205 l0 -198 35 0 35 0 0 85 0 85 95 0
95 0 0 30 0 30 -95 0 -95 0 0 55 0 55 95 0 95 0 0 35 0 35 -123 0 c-68 0 -127
-3 -130 -7z"/>
<path d="M869 556 c-89 -32 -139 -101 -139 -192 1 -83 54 -167 123 -193 46
-18 124 -13 167 9 45 23 48 30 22 53 -17 16 -22 16 -59 1 -77 -31 -161 9 -184
86 -36 120 85 222 196 164 28 -15 31 -14 48 7 18 22 18 23 -5 40 -22 17 -92
39 -120 39 -7 -1 -29 -7 -49 -14z"/>
<path d="M488 376 c-21 -16 -29 -76 -9 -76 7 0 34 81 28 86 -1 1 -9 -3 -19
-10z"/>
<path d="M414 199 c-7 -12 25 -51 37 -43 15 9 10 29 -11 41 -13 9 -21 9 -26 2z"/>
<path d="M370 167 c0 -16 42 -57 58 -57 20 0 14 25 -11 48 -26 25 -47 29 -47
9z"/>
<path d="M340 140 c-12 -8 -9 -16 22 -47 30 -30 40 -35 50 -25 18 18 -50 86
-72 72z"/>
<path d="M307 93 c-9 -8 12 -33 29 -33 7 0 17 -7 22 -16 7 -12 11 -13 17 -5 4
7 -3 23 -16 37 -22 24 -40 30 -52 17z"/>
</g>
</svg>
