<svg xmlns="http://www.w3.org/2000/svg"  width="30" height="20" viewBox="0 0 213.12 62.17">
  <path d="M211.20 60.30H-1.92V-1.86h213.12z" fill="#000"/>
  <path d="M73.64 10.02c-5.01 0-7.87 2.03-7.87 5.59 0 2.21.92 3.81 3.56 4.59l4.81 1.41c.64.19 1.16.55 1.16 1.19 0 .76-.66 1.4-1.66 1.4-.64 0-1.05-.23-1.31-.56-.26-.36-.38-.84-.38-1.31h-6.5c0 4.47 3.8 5.75 7.94 5.75 4.85 0 8.25-1.76 8.25-5.97 0-2.07-.93-3.6-3.09-4.5-1.74-.74-4.13-1.21-5.44-1.59-.71-.21-1.12-.48-1.12-1.09 0-.52.47-1 1.56-1 .88 0 1.48.37 1.5 1.44h6.09c0-3.99-3.22-5.34-7.5-5.34zm93.69.12v38.09h2.16V10.14h-2.16zm21.72.13c-1.27 0-2.31 1.03-2.31 2.28 0 1.27 1.04 2.28 2.31 2.28 1.26 0 2.28-1.01 2.28-2.28 0-1.25-1.02-2.28-2.28-2.28zM18.34 10.48l3.72 17.16h7.37l1.59-11.12h.03l1.59 11.12h7.38l3.72-17.16h-6.09l-1.44 10.78h-.06l-1.59-10.78h-7.03l-1.59 10.78h-.03l-1.47-10.78h-6.1zm29.56 0v17.16h13.25v-4.47h-6.75v-1.94h6.03v-4.47h-6.03v-1.81h6.53v-4.47H47.9zm37.63 0v4.59h4.25v12.56h6.78V15.07h4.25v-4.59H85.53zm19.87 0v17.16h13.28v-4.47h-6.75v-1.94h6.03v-4.47h-6.03v-1.81h6.53v-4.47h-13.06zm18.31 0v17.16h6.66v-6.12h.78c1.09 0 1.51.33 1.66 1.19.24 1.47.44 3.65.84 4.94h6.66c-.78-2.59-.71-5.03-1.09-6.5-.33-1.31-1.24-2.04-2.91-2.19v-.03c2.57-.62 3.41-2.12 3.41-4.09 0-3.23-2.16-4.34-5.84-4.34h-10.16zm21.34 0v17.16h5.5V16.71h.06l3.63 10.47h8.16V10.48h-5.53v10.37h-.03l-3.63-10.37h-8.16zm37.66 0v37.69h2.16V10.48h-2.16zm6.34.06c1.11 0 1.91.89 1.91 2 0 1.12-.8 1.97-1.91 1.97-1.12 0-1.94-.85-1.94-1.97 0-1.11.82-2 1.94-2zm-.84.72v2.56h.31v-1.19h.56l.72 1.19h.38l-.75-1.19c.45-.01.78-.19.78-.69 0-.42-.23-.69-.91-.69h-1.09zm.31.22h.72c.31 0 .63.04.63.44 0 .52-.51.47-.88.47h-.47v-.91zm-58.16 2.91h.63c1.33 0 2.19.24 2.19 1.5 0 1.28-.94 1.75-2.25 1.75h-.56v-3.25zm.69 16.15c-5.92 0-8.88 3.69-8.88 9.03 0 5.35 2.96 9.03 8.88 9.03 5.92 0 8.84-3.68 8.84-9.03 0-5.35-2.93-9.03-8.84-9.03zm-65.84.44v11.41c0 4.13 2.98 6.22 8.16 6.22 5.18 0 8.16-2.08 8.16-6.22V30.98h-6.81v11.12c0 1.35-.63 1.88-1.34 1.88-.71 0-1.34-.52-1.34-1.88V30.98h-6.81zm21.94 0v17.16h5.53V37.7h.03l3.63 10.44h8.16V30.98h-5.5v10.41h-.06l-3.63-10.41h-8.16zm23.09 0v17.16h6.81V30.98h-6.81zm34.81 0v17.16h5.5V37.7h.06l3.63 10.44h8.16V30.98h-5.53v10.41h-.03l-3.63-10.41h-8.16zm-14 4.03c1.09 0 1.81.69 1.81 4.56 0 3.97-.77 4.56-1.81 4.56-1.05 0-1.84-.59-1.84-4.56 0-3.87.75-4.56 1.84-4.56z" fill="#ffde38"/>
</svg>
